<?xml version="1.0" standalone="no"?>
<!DOCTYPE svg PUBLIC "-//W3C//DTD SVG 20010904//EN"
 "http://www.w3.org/TR/2001/REC-SVG-20010904/DTD/svg10.dtd">
<svg version="1.0" xmlns="http://www.w3.org/2000/svg"
 width="1244" height="1244" viewBox="0 0 1244 1244"
 preserveAspectRatio="xMidYMid meet">
<metadata>
Created by potrace 1.16, written by Peter Selinger 2001-2019
</metadata>
<circle cx="622" cy="622" r="622" fill="#0F3850"/>
<g transform="translate(0,1244) scale(0.1,-0.1)" fill="white" stroke="none">
<path d="M2673 9462 c-7 -4 -41 -57 -76 -117 -35-61 -101-173 -147-250 -46
-77 -91-153 -100-170 -31-54 -215-368 -285-485 -37-63 -75-128 -85-145 -10
-16 -48-82 -85-145 -37-63 -68-124 -68-136 l-2-22 1570-4
c878-2 1576-7 1584-12 12-8 13-96 7-570 -9-725 -10-4100 -2-4446 4-146 9-299
12-340 6-79 11-86 99-160 17-14 74-62 127-108 53-45 99-82 102-82 3 0 5 1360
4 3023 l-3 3022 -165 6 c-91 4 -723 9 -1405 13 -682 4
-1269 9 -1303 13 -39 3 -66 11 -69 19 -3 7 28 66 67 131 40 65 84 138 98 163
62 110 314 480 334 492 19 11 603 13 3158 15 1724 0 3251 1 3393 2 l258 1 22
24 c12 13 40 49 62 81 22 31 59 80 83 110 23 30 42 61 42 69 0 15 -338 16
-3607 16 -1985 0 -3613 -4 -3620 -8z"/>
<path d="M8033 8693 l-1813 -3 0 -158 c0 -86 4 -162 8 -168 5 -8 504 -13 1846
-18 1141 -4 1844 -10 1849 -15 6 -6 4 -19 -6 -35 -16 -24 -36 -58 -85 -146
-14 -25 -63 -110 -110 -190 -46 -80 -93 -161 -104 -180 -10 -19 -28 -46 -38
-60 l-19 -25 -1688 -5 -1688 -5 -3 -2415 c-2 -2236 5 -3501 21 -3516 12 -12
52 6 167 74 63 38 144 84 180 104 36 19 110 61 165 93 97 56 198 114 300 170
28 15 91 52 140 80 50 29 131 75 180 102 50 27 113 62 140 77 28 16 78 44 112
62 34 19 68 41 76 48 12 12 13 331 10 2173 -2 1187 -4 2164 -4 2171 1 10 -34
12 -156 10 l-158 -3 -5 -2055 c-4 -1633 -8 -2060 -18 -2077 -11 -20 -65 -56
-192 -126 -109 -60 -389 -216 -425 -237 -103 -59 -144 -80 -158 -80 -10 0 -16
19 -21 78 -3 42 -6 1156 -6 2476 0 1932 2 2401 12 2414 12 14 85 14 678 8
1951 -21 2475 -24 2492 -15 9 5 34 40 54 77 21 37 68 120 105 184 37 64 82
143 100 175 17 32 80 144 139 248 59 105 122 216 140 249 17 32 45 81 61 108
16 27 29 50 29 52 0 6 107 191 134 233 50 75 58 73 -306 71 -178 -2 -1139 -4
-2135 -5z"/>
</g>
</svg>
